<?xml version="1.0" encoding="iso-8859-1"?>
<!-- Generator: Adobe Illustrator 19.0.0, SVG Export Plug-In . SVG Version: 6.00 Build 0)  -->
<svg xmlns="http://www.w3.org/2000/svg" xmlns:xlink="http://www.w3.org/1999/xlink" version="1.1" id="Layer_1" x="0px" y="0px" viewBox="0 0 512 512" style="enable-background:new 0 0 512 512;" xml:space="preserve" width="512px" height="512px">
<g>
	<g>
		<path d="M256,0C166.707,0,94.063,72.644,94.063,161.937c0,81.946,60.383,176.927,111.607,242.753l8.109,48.65v33.541    c0,13.851,11.268,25.119,25.119,25.119h34.205c13.851,0,25.119-11.268,25.119-25.119V453.34l8.109-48.65    c51.225-65.826,111.607-160.807,111.607-242.753C417.937,72.644,345.293,0,256,0z M401.904,161.937    c0,20.884-8.041,34.739-13.361,34.739c-5.32,0-13.361-13.855-13.361-34.739c0-42.786-12.102-83.105-34.077-113.533    c-2.667-3.693-5.445-7.182-8.317-10.476C374.242,63.691,401.904,109.641,401.904,161.937z M256,16.033    c6.187,0,16.364,14.152,24.089,45.224c1.069,4.297,5.419,6.916,9.714,5.846c4.297-1.069,6.914-5.417,5.846-9.714    c-3.746-15.069-8.199-27.28-13.261-36.509c44.134,16.533,76.76,73.504,76.76,141.058c0,19.155-11.748,34.739-26.188,34.739    s-26.188-15.584-26.188-34.739c0-5.784-0.089-11.62-0.265-17.347c-0.136-4.425-3.823-7.893-8.259-7.768    c-4.425,0.136-7.903,3.833-7.768,8.259c0.171,5.564,0.258,11.234,0.258,16.855c0,19.155-15.584,34.739-34.739,34.739    s-34.738-15.584-34.738-34.739c0-40.41,4.343-78.3,12.23-106.693C242.089,24.292,251.685,16.033,256,16.033z M289.595,199.959    c-3.838,67.361-16.695,139.517-28.193,193.394h-10.804c-11.498-53.877-24.355-126.033-28.193-193.394    c8.959,7.926,20.722,12.751,33.595,12.751C268.874,212.71,280.636,207.885,289.595,199.959z M229.502,20.923    c-4.247,7.834-8.073,17.843-11.459,30.031c-8.265,29.751-12.816,69.166-12.816,110.984c0,19.155-11.748,34.739-26.188,34.739    s-26.188-15.584-26.188-34.739C152.852,94.44,185.425,37.51,229.502,20.923z M179.213,37.929    c-2.872,3.295-5.65,6.784-8.317,10.476c-21.975,30.427-34.077,70.747-34.077,113.533c0,20.884-8.041,34.739-13.361,34.739    c-5.32,0-13.361-13.855-13.361-34.739C110.096,109.641,137.758,63.691,179.213,37.929z M170.959,262.104    c-1.36-4.214-5.878-6.528-10.091-5.167c-4.214,1.36-6.527,5.878-5.167,10.091c10.247,31.757,24.447,65.533,42.341,100.793    c-47.631-65.959-70.725-117.472-80.905-156.201c2.024,0.709,4.137,1.088,6.32,1.088c6.367,0,12.137-3.158,16.848-8.654    c1.426,9.115,3.284,18.498,5.575,28.116c1.026,4.308,5.35,6.967,9.656,5.941c4.307-1.026,6.967-5.35,5.941-9.656    c-1.909-8.013-3.496-15.839-4.776-23.463c6.484,4.882,14.139,7.716,22.338,7.716c10.422,0,19.968-4.575,27.34-12.129    c3.804,67.089,16.377,138.615,27.83,192.772h-4.395C203.868,346.886,184.074,302.748,170.959,262.104z M222.708,409.386h25.275    v35.273h-19.396L222.708,409.386z M282.188,486.881c0,5.01-4.076,9.086-9.086,9.086h-34.205c-5.01,0-9.086-4.076-9.086-9.086    v-26.188h52.376V486.881z M283.413,444.66h-19.396v-35.273h25.275L283.413,444.66z M282.186,393.353h-4.395    c11.453-54.157,24.026-125.683,27.83-192.772c7.372,7.554,16.918,12.129,27.34,12.129c8.211,0,15.877-2.843,22.368-7.74    C344.317,270.909,311.369,341.081,282.186,393.353z M313.943,367.844c24.924-49.133,48.999-107.797,57.76-163.779    c4.71,5.491,10.476,8.645,16.84,8.645c2.184,0,4.295-0.378,6.32-1.088C384.683,250.354,361.584,301.874,313.943,367.844z" fill="#c2c2c2"/>
	</g>
</g>
<g>
	<g>
		<path d="M304.301,109.846c-0.58-5.91-1.27-11.766-2.048-17.409c-0.605-4.387-4.656-7.447-9.037-6.846    c-4.387,0.605-7.451,4.652-6.846,9.037c0.751,5.435,1.415,11.082,1.974,16.784c0.406,4.141,3.894,7.234,7.97,7.234    c0.262,0,0.527-0.013,0.792-0.039C301.512,118.175,304.733,114.252,304.301,109.846z" fill="#c2c2c2"/>
	</g>
</g>
<g>
</g>
<g>
</g>
<g>
</g>
<g>
</g>
<g>
</g>
<g>
</g>
<g>
</g>
<g>
</g>
<g>
</g>
<g>
</g>
<g>
</g>
<g>
</g>
<g>
</g>
<g>
</g>
<g>
</g>
</svg>
